<svg width="137" height="56" viewBox="0 0 137 56" fill="none" xmlns="http://www.w3.org/2000/svg">
<path d="M23.3438 26.4512C23.625 26.5566 23.9238 26.6504 24.2402 26.7324C24.5684 26.8145 24.8906 26.8848 25.207 26.9434C25.5352 26.9902 25.8516 27.0371 26.1562 27.084C26.4727 27.1191 26.7539 27.1426 27 27.1543C27.4453 25.7949 28.002 24.5293 28.6699 23.3574C29.3379 22.1855 30.0645 21.1191 30.8496 20.1582C31.6465 19.1973 32.4785 18.3477 33.3457 17.6094C34.2246 16.8711 35.0918 16.25 35.9473 15.7461C36.8145 15.2305 37.6465 14.8438 38.4434 14.5859C39.252 14.3281 39.9902 14.1992 40.6582 14.1992C41.5137 14.1992 42.1992 14.4219 42.7148 14.8672C43.2422 15.3125 43.5059 16.0039 43.5059 16.9414C43.5059 17.4922 43.3477 18.1074 43.0312 18.7871C42.7266 19.4668 42.2871 20.1699 41.7129 20.8965C41.1387 21.6113 40.4414 22.332 39.6211 23.0586C38.8008 23.7852 37.875 24.4766 36.8438 25.1328C35.8242 25.7773 34.7051 26.3691 33.4863 26.9082C32.2793 27.4355 31.002 27.8633 29.6543 28.1914C29.127 29.6211 28.582 31.0801 28.0195 32.5684C27.457 34.0449 26.8594 35.5215 26.2266 36.998C25.5938 38.4629 24.9082 39.8984 24.1699 41.3047C23.4434 42.7109 22.6348 44.0527 21.7441 45.3301C22.7871 46.2559 23.8184 47.1641 24.8379 48.0547C25.8691 48.957 26.918 49.7598 27.9844 50.4629C29.0508 51.166 30.1523 51.7285 31.2891 52.1504C32.4258 52.584 33.627 52.8008 34.8926 52.8008C36.2754 52.8008 37.752 52.4961 39.3223 51.8867C40.8926 51.2773 42.5977 50.2578 44.4375 48.8281C45.6797 48.0078 46.7109 47.4043 47.5312 47.0176C48.3516 46.6309 48.9492 46.4375 49.3242 46.4375C49.6172 46.4375 49.7637 46.5488 49.7637 46.7715C49.7637 47.0879 49.4238 47.6152 48.7441 48.3535C48.0762 49.1035 47.0156 50.0469 45.5625 51.1836C44.5781 51.9805 43.6348 52.6602 42.7324 53.2227C41.8418 53.7852 40.9746 54.2422 40.1309 54.5938C39.2988 54.9453 38.4961 55.2031 37.7227 55.3672C36.9492 55.5312 36.2051 55.6133 35.4902 55.6133C34.0723 55.6133 32.7305 55.3379 31.4648 54.7871C30.1992 54.248 28.9746 53.5449 27.791 52.6777C26.6074 51.8105 25.4355 50.8379 24.2754 49.7598C23.127 48.6816 21.9551 47.6035 20.7598 46.5254C19.9863 47.4395 19.1602 48.2715 18.2812 49.0215C17.4023 49.7832 16.459 50.4336 15.4512 50.9727C14.4551 51.5234 13.3887 51.9453 12.252 52.2383C11.127 52.543 9.92578 52.6953 8.64844 52.6953C7.17188 52.6953 5.88867 52.4844 4.79883 52.0625C3.70898 51.6406 2.80664 51.084 2.0918 50.3926C1.38867 49.7012 0.861328 48.9102 0.509766 48.0195C0.169922 47.1406 0 46.2441 0 45.3301C0 44.4277 0.164063 43.543 0.492188 42.6758C0.820312 41.8086 1.30078 41.041 1.93359 40.373C2.56641 39.6934 3.35156 39.1484 4.28906 38.7383C5.22656 38.3281 6.30469 38.123 7.52344 38.123C8.71875 38.123 9.84961 38.2637 10.916 38.5449C11.9824 38.8262 13.0078 39.207 13.9922 39.6875C14.9766 40.1562 15.9199 40.707 16.8223 41.3398C17.7246 41.9727 18.6035 42.6406 19.459 43.3438C20.1387 42.1836 20.7891 40.9766 21.4102 39.7227C22.043 38.457 22.6523 37.1738 23.2383 35.873C23.8359 34.5723 24.416 33.2656 24.9785 31.9531C25.5527 30.6406 26.1211 29.3516 26.6836 28.0859C26.4375 28.0859 26.1621 28.0801 25.8574 28.0684C25.5527 28.0449 25.2363 28.0215 24.9082 27.998C24.5801 27.9746 24.252 27.9453 23.9238 27.9102C23.6074 27.8633 23.3086 27.8105 23.0273 27.752C22.5 27.6582 21.9551 27.5938 21.3926 27.5586C20.8418 27.5117 20.3203 27.4297 19.8281 27.3125C19.3359 27.1836 18.8906 26.9902 18.4922 26.7324C18.1055 26.4629 17.8066 26.0645 17.5957 25.5371C17.502 25.3145 17.4551 25.0977 17.4551 24.8867C17.4551 24.7227 17.4902 24.5586 17.5605 24.3945C17.6309 24.2305 17.7305 24.084 17.8594 23.9551C18 23.8145 18.1582 23.7031 18.334 23.6211C18.5215 23.5391 18.7266 23.498 18.9492 23.498C19.3125 23.498 19.6992 23.6094 20.1094 23.832C20.5195 24.0547 20.9238 24.3242 21.3223 24.6406C21.7207 24.957 22.0957 25.2852 22.4473 25.625C22.7988 25.9531 23.0977 26.2285 23.3438 26.4512ZM8.45508 51.3594C9.58008 51.3594 10.623 51.1953 11.584 50.8672C12.5449 50.5391 13.4414 50.082 14.2734 49.4961C15.1055 48.9102 15.8789 48.207 16.5938 47.3867C17.3086 46.5781 17.9824 45.6875 18.6152 44.7148C17.7949 44.0703 16.9453 43.4668 16.0664 42.9043C15.1992 42.3418 14.291 41.8496 13.3418 41.4277C12.3926 41.0059 11.3965 40.6777 10.3535 40.4434C9.32227 40.1973 8.22656 40.0742 7.06641 40.0742C6.375 40.0742 5.76562 40.2207 5.23828 40.5137C4.72266 40.8066 4.28906 41.1934 3.9375 41.6738C3.58594 42.1543 3.31641 42.7051 3.12891 43.3262C2.95312 43.9473 2.86523 44.5918 2.86523 45.2598C2.86523 45.998 2.97656 46.7305 3.19922 47.457C3.43359 48.1953 3.7793 48.8516 4.23633 49.4258C4.69336 50 5.27344 50.4629 5.97656 50.8145C6.67969 51.1777 7.50586 51.3594 8.45508 51.3594ZM30.0234 26.8555C31.1602 26.4688 32.2383 25.9883 33.2578 25.4141C34.2891 24.8281 35.2383 24.2012 36.1055 23.5332C36.9844 22.8652 37.7754 22.1738 38.4785 21.459C39.1816 20.7441 39.7793 20.0527 40.2715 19.3848C40.7754 18.7168 41.1562 18.1016 41.4141 17.5391C41.6836 16.9648 41.8184 16.4902 41.8184 16.1152C41.8184 15.5879 41.5488 15.3242 41.0098 15.3242C40.623 15.3242 40.125 15.4648 39.5156 15.7461C38.9062 16.0273 38.2441 16.4258 37.5293 16.9414C36.8262 17.457 36.0938 18.0723 35.332 18.7871C34.582 19.4902 33.8672 20.2695 33.1875 21.125C32.5078 21.9805 31.8867 22.8945 31.3242 23.8672C30.7734 24.8281 30.3398 25.8242 30.0234 26.8555ZM31.7812 41.2344C31.6992 41.2812 31.623 41.3047 31.5527 41.3047C31.4355 41.3047 31.3477 41.2578 31.2891 41.1641C31.2305 41.0586 31.2012 40.9297 31.2012 40.7773C31.2012 40.6133 31.2422 40.4375 31.3242 40.25C31.4062 40.0625 31.5586 39.9043 31.7812 39.7754L38.2852 35.9434C39.0938 35.4746 39.9551 35.0703 40.8691 34.7305C41.7832 34.3906 42.709 34.1152 43.6465 33.9043C44.5957 33.6816 45.5332 33.5234 46.459 33.4297C47.3848 33.3242 48.2578 33.2715 49.0781 33.2715C49.5469 33.2715 49.9863 33.3066 50.3965 33.377C50.8066 33.4355 51.1582 33.5293 51.4512 33.6582C51.7559 33.7754 51.9902 33.9219 52.1543 34.0977C52.3301 34.2734 52.418 34.4727 52.418 34.6953C52.418 34.8594 52.3594 34.9766 52.2422 35.0469C52.125 35.1172 51.9844 35.1699 51.8203 35.2051C51.668 35.2285 51.5039 35.2461 51.3281 35.2578C51.1641 35.2695 51.0352 35.2988 50.9414 35.3457C50.8711 35.5684 50.7598 35.9141 50.6074 36.3828C50.4551 36.8398 50.3027 37.3145 50.1504 37.8066C49.998 38.2871 49.8574 38.7207 49.7285 39.1074C49.6113 39.4824 49.5469 39.6992 49.5352 39.7578C49.3828 40.25 49.1719 40.877 48.9023 41.6387C48.6445 42.3887 48.3574 43.3965 48.041 44.6621C48.0527 44.6621 48.1816 44.5977 48.4277 44.4688C48.6855 44.3281 49.0137 44.1465 49.4121 43.9238C49.8223 43.7012 50.2852 43.4434 50.8008 43.1504C51.3164 42.8574 51.8496 42.5586 52.4004 42.2539L56.6016 39.7754C56.7656 39.6816 56.9062 39.6348 57.0234 39.6348C57.1523 39.6348 57.252 39.6816 57.3223 39.7754C57.3926 39.8574 57.4277 39.9629 57.4277 40.0918C57.4277 40.2559 57.3633 40.4492 57.2344 40.6719C57.1055 40.8828 56.8945 41.0703 56.6016 41.2344L47.25 46.7188C47.0156 46.8594 46.7988 46.959 46.5996 47.0176C46.4004 47.0762 46.2188 47.1055 46.0547 47.1055C45.8203 47.1055 45.6211 47.0527 45.457 46.9473C45.293 46.8418 45.1582 46.6953 45.0527 46.5078C44.9473 46.3203 44.8652 46.1094 44.8066 45.875C44.7598 45.6289 44.7363 45.3711 44.7363 45.1016C44.7363 44.8086 44.7656 44.5156 44.8242 44.2227C44.8828 43.9297 44.959 43.6484 45.0527 43.3789C44.7129 44.0469 44.3145 44.627 43.8574 45.1191C43.4121 45.6113 42.9316 46.0273 42.416 46.3672C41.9121 46.6953 41.3906 46.9414 40.8516 47.1055C40.3125 47.2695 39.7852 47.3516 39.2695 47.3516C38.7539 47.3516 38.2676 47.2695 37.8105 47.1055C37.3535 46.9414 36.9492 46.7012 36.5977 46.3848C36.2578 46.0566 35.9883 45.6523 35.7891 45.1719C35.5898 44.6914 35.4902 44.1348 35.4902 43.502C35.4902 43.127 35.5254 42.7109 35.5957 42.2539C35.6777 41.7969 35.7832 41.334 35.9121 40.8652C36.041 40.3965 36.1875 39.9395 36.3516 39.4941C36.5156 39.0371 36.6855 38.6211 36.8613 38.2461L31.7812 41.2344ZM47.7598 34.7656C46.8223 34.7656 45.9258 34.9238 45.0703 35.2402C44.2148 35.5566 43.418 35.9727 42.6797 36.4883C41.9531 37.0039 41.291 37.5957 40.6934 38.2637C40.1074 38.9199 39.6035 39.5996 39.1816 40.3027C38.7715 40.9941 38.4492 41.6797 38.2148 42.3594C37.9922 43.0391 37.8809 43.6484 37.8809 44.1875C37.8809 44.7852 38.0098 45.2715 38.2676 45.6465C38.5371 46.0098 38.9707 46.1914 39.5684 46.1914C39.9199 46.1914 40.3008 46.0859 40.7109 45.875C41.1328 45.6523 41.5547 45.3652 41.9766 45.0137C42.4102 44.6504 42.832 44.2461 43.2422 43.8008C43.6641 43.3438 44.0508 42.8867 44.4023 42.4297C44.7539 41.9609 45.0586 41.5098 45.3164 41.0762C45.5859 40.6309 45.7793 40.2441 45.8965 39.916L47.7598 34.7656ZM86.4141 47.4043C86.3906 47.4629 86.209 47.5742 85.8691 47.7383C85.541 47.9141 85.1426 48.0957 84.6738 48.2832C84.2168 48.4824 83.7305 48.6523 83.2148 48.793C82.7109 48.9453 82.2656 49.0215 81.8789 49.0215C81.6211 49.0215 81.4102 48.9746 81.2461 48.8809C81.0938 48.7871 81.0176 48.6348 81.0176 48.4238C81.0176 48.3535 81.0293 48.2832 81.0527 48.2129C81.0762 48.1543 81.1055 48.0605 81.1406 47.9316C81.5859 46.2559 82.043 44.5859 82.5117 42.9219C82.9805 41.2578 83.4375 39.6348 83.8828 38.0527C84.3281 36.459 84.75 34.9238 85.1484 33.4473C85.5469 31.959 85.8926 30.5645 86.1855 29.2637C86.4785 27.9512 86.7129 26.75 86.8887 25.6602C87.0645 24.5586 87.1523 23.5977 87.1523 22.7773C87.1523 20.2109 86.9355 17.8906 86.502 15.8164C86.0801 13.7422 85.4766 11.9023 84.6914 10.2969C83.918 8.67969 82.9863 7.29102 81.8965 6.13086C80.8184 4.95898 79.623 3.99805 78.3105 3.24805C76.998 2.49805 75.5918 1.94727 74.0918 1.5957C72.6035 1.23242 71.0625 1.05078 69.4688 1.05078C67.582 1.05078 65.6602 1.28516 63.7031 1.75391C61.7461 2.22266 59.8184 2.89648 57.9199 3.77539C56.0098 4.6543 54.1641 5.72656 52.3828 6.99219C50.5898 8.25781 48.9258 9.6875 47.3906 11.2812C45.8438 12.8633 44.4609 14.6035 43.2422 16.502C42.0234 18.3887 41.0273 20.3984 40.2539 22.5312C40.0195 23.1641 39.832 23.6035 39.6914 23.8496C39.5391 24.084 39.416 24.2012 39.3223 24.2012C39.2168 24.2012 39.1406 24.0781 39.0938 23.832C39.0469 23.5742 39.0234 23.3164 39.0234 23.0586C39.0234 22.9414 39.0293 22.8418 39.041 22.7598C39.041 22.666 39.0469 22.5898 39.0586 22.5312C39.6094 20.2227 40.4531 18.0781 41.5898 16.0977C42.7266 14.1172 44.0742 12.3125 45.6328 10.6836C47.1914 9.05469 48.9258 7.61328 50.8359 6.35938C52.7461 5.09375 54.75 4.0332 56.8477 3.17773C58.9453 2.32227 61.1016 1.67188 63.3164 1.22656C65.5312 0.78125 67.7227 0.558594 69.8906 0.558594C71.8125 0.558594 73.6816 0.740234 75.498 1.10352C77.3262 1.4668 79.043 2.01758 80.6484 2.75586C82.2656 3.49414 83.748 4.43164 85.0957 5.56836C86.4434 6.70508 87.6035 8.05273 88.5762 9.61133C89.5488 11.1582 90.3047 12.9219 90.8438 14.9023C91.3945 16.8711 91.6699 19.0625 91.6699 21.4766C91.6699 22.625 91.5762 24.0137 91.3887 25.6426C91.2012 27.2598 90.9082 29.0469 90.5098 31.0039C90.1113 32.9492 89.6016 35.0234 88.9805 37.2266C88.3594 39.418 87.6211 41.6562 86.7656 43.9414L101.637 19.8945C101.918 19.4609 102.234 19.0098 102.586 18.541C102.938 18.0605 103.307 17.6211 103.693 17.2227C104.092 16.8125 104.496 16.4785 104.906 16.2207C105.316 15.9512 105.721 15.8164 106.119 15.8164C106.518 15.8164 106.828 15.8516 107.051 15.9219C107.273 15.9805 107.438 16.0566 107.543 16.1504C107.66 16.2441 107.73 16.3555 107.754 16.4844C107.789 16.6016 107.807 16.7188 107.807 16.8359L86.4141 47.4043ZM118.406 41.2344C116.59 42.2773 115.049 43.1855 113.783 43.959C112.518 44.7207 111.439 45.3535 110.549 45.8574C109.658 46.3496 108.902 46.7188 108.281 46.9648C107.672 47.1992 107.115 47.3164 106.611 47.3164C106.119 47.3164 105.697 47.2578 105.346 47.1406C105.006 47.0234 104.725 46.8652 104.502 46.666C104.279 46.4668 104.115 46.2266 104.01 45.9453C103.916 45.6641 103.869 45.3594 103.869 45.0312C103.869 44.7852 103.922 44.5332 104.027 44.2754C104.133 44.0176 104.262 43.7539 104.414 43.4844C104.578 43.2148 104.748 42.9336 104.924 42.6406C105.1 42.3359 105.264 42.0137 105.416 41.6738L108.088 35.6973L98.6484 41.2344C98.4961 41.293 98.3906 41.3223 98.332 41.3223C98.1914 41.3223 98.0684 41.2754 97.9629 41.1816C97.8457 41.0879 97.7871 40.9648 97.7871 40.8125C97.7871 40.6719 97.8516 40.5137 97.9805 40.3379C98.0977 40.1621 98.3203 39.9746 98.6484 39.7754L103.201 37.1211C103.799 36.7695 104.402 36.418 105.012 36.0664C105.621 35.7148 106.189 35.3867 106.717 35.082C107.256 34.7773 107.736 34.5078 108.158 34.2734C108.592 34.0273 108.926 33.8398 109.16 33.7109H111.428C111.475 33.7461 111.516 33.8047 111.551 33.8867C111.586 33.9688 111.604 34.0918 111.604 34.2559C111.604 34.5605 111.516 34.9941 111.34 35.5566C111.164 36.1074 110.941 36.7285 110.672 37.4199C110.414 38.1113 110.121 38.8379 109.793 39.5996C109.477 40.3496 109.178 41.0645 108.896 41.7441C108.615 42.4121 108.322 43.0801 108.018 43.748C107.713 44.416 107.408 45.1016 107.104 45.8047C107.42 45.8047 107.918 45.6465 108.598 45.3301C109.289 45.0137 110.121 44.5859 111.094 44.0469C112.078 43.4961 113.186 42.8574 114.416 42.1309C115.658 41.3926 116.988 40.6074 118.406 39.7754C118.453 39.7285 118.541 39.7051 118.67 39.7051C118.811 39.7051 118.939 39.752 119.057 39.8457C119.186 39.9395 119.25 40.0684 119.25 40.2324C119.25 40.373 119.186 40.5312 119.057 40.707C118.939 40.8711 118.723 41.0469 118.406 41.2344ZM113.555 27.5586C113.625 27.5586 113.754 27.5645 113.941 27.5762C114.141 27.5762 114.363 27.5879 114.609 27.6113C114.855 27.6348 115.113 27.6758 115.383 27.7344C115.652 27.7812 115.898 27.8574 116.121 27.9629C116.344 28.0566 116.531 28.1797 116.684 28.332C116.836 28.4844 116.918 28.6719 116.93 28.8945L114.381 30.8281L113.221 31.373C113.01 31.373 112.846 31.3145 112.729 31.1973C112.611 31.0801 112.523 30.957 112.465 30.8281L113.555 27.5586ZM118.406 41.2344C118.289 41.3164 118.154 41.3574 118.002 41.3574C117.85 41.3574 117.727 41.3164 117.633 41.2344C117.539 41.1406 117.492 41.0234 117.492 40.8828C117.492 40.7305 117.562 40.5605 117.703 40.373C117.832 40.1738 118.066 39.9746 118.406 39.7754L122.854 37.1562C123.182 36.2305 123.604 35.4336 124.119 34.7656C124.646 34.0859 125.221 33.5293 125.842 33.0957C126.475 32.6504 127.131 32.3223 127.811 32.1113C128.502 31.8887 129.17 31.7773 129.814 31.7773C130.471 31.7773 131.01 31.9531 131.432 32.3047C131.865 32.6445 132.082 33.1777 132.082 33.9043C132.082 34.3496 131.918 34.8184 131.59 35.3105C131.273 35.791 130.834 36.2715 130.271 36.752C129.721 37.2207 129.07 37.6602 128.32 38.0703C127.57 38.4805 126.773 38.8262 125.93 39.1074C125.93 39.6699 125.918 40.2031 125.895 40.707C125.883 41.2109 125.877 41.6855 125.877 42.1309C125.877 42.5059 125.889 42.8516 125.912 43.168C125.936 43.4727 125.982 43.7363 126.053 43.959C126.135 44.1699 126.24 44.3398 126.369 44.4688C126.51 44.5859 126.686 44.6445 126.896 44.6445C127.225 44.6445 127.617 44.5156 128.074 44.2578C128.543 43.9883 129.129 43.6484 129.832 43.2383C130.465 42.8633 131.273 42.3945 132.258 41.832C133.242 41.2695 134.443 40.584 135.861 39.7754C135.908 39.7402 135.973 39.7227 136.055 39.7227C136.184 39.7227 136.295 39.7812 136.389 39.8984C136.494 40.0039 136.547 40.1387 136.547 40.3027C136.547 40.4434 136.494 40.5957 136.389 40.7598C136.295 40.9238 136.119 41.082 135.861 41.2344C134.701 41.9258 133.576 42.6289 132.486 43.3438C131.396 44.0469 130.365 44.6914 129.393 45.2773C128.432 45.8516 127.541 46.3262 126.721 46.7012C125.9 47.0645 125.186 47.2461 124.576 47.2461C124.166 47.2461 123.803 47.1582 123.486 46.9824C123.182 46.8066 122.918 46.5254 122.695 46.1387C122.484 45.752 122.32 45.248 122.203 44.627C122.098 43.9941 122.045 43.2266 122.045 42.3242C122.045 42.1836 122.051 41.9609 122.062 41.6562C122.086 41.3398 122.115 41.0059 122.15 40.6543C122.197 40.291 122.25 39.9395 122.309 39.5996C122.367 39.2598 122.438 38.9961 122.52 38.8086C122.438 38.8555 122.314 38.9258 122.15 39.0195C121.998 39.1133 121.816 39.2246 121.605 39.3535C121.395 39.4707 121.172 39.5996 120.938 39.7402C120.703 39.8809 120.469 40.0215 120.234 40.1621L118.406 41.2344ZM130.184 34.0449C130.207 33.9746 130.219 33.8984 130.219 33.8164C130.219 33.5234 130.166 33.3066 130.061 33.166C129.967 33.0254 129.803 32.9551 129.568 32.9551C129.299 32.9551 128.988 33.0605 128.637 33.2715C128.285 33.4707 127.939 33.7695 127.6 34.168C127.271 34.5664 126.973 35.0645 126.703 35.6621C126.445 36.2598 126.27 36.9453 126.176 37.7188C126.656 37.4727 127.125 37.1914 127.582 36.875C128.039 36.5469 128.449 36.2188 128.812 35.8906C129.188 35.5508 129.492 35.2227 129.727 34.9062C129.973 34.5781 130.125 34.291 130.184 34.0449Z" fill="black"/>
<path fill-rule="evenodd" clip-rule="evenodd" d="M54.0456 15.0437C53.9772 15.1104 53.9888 20.9608 54.06 22.3419C54.1861 24.7872 54.8111 26.6758 56.1274 28.5888C57.2879 30.2756 58.605 31.4639 60.4329 32.4731C62.3293 33.5202 64.3109 33.9845 66.8949 33.9873L68.1835 33.9887L68.1584 29.7711C68.1344 25.7159 68.1272 25.5242 67.9701 24.7913C67.8803 24.372 67.7109 23.7427 67.5937 23.393C66.0996 18.9329 62.147 15.7197 57.3954 15.1025C56.6435 15.0048 54.1306 14.9607 54.0456 15.0437ZM77.0921 25.2004C74.5225 25.6549 72.4228 27.1821 71.2654 29.4388C70.7152 30.5115 70.4927 31.4465 70.4376 32.9179L70.397 34L73.3201 33.972C76.2008 33.9445 76.2531 33.9415 76.9453 33.7595C79.9238 32.9765 82.202 30.6502 82.7836 27.7978C82.9362 27.0491 83.0534 25.4853 82.9749 25.244C82.9266 25.0955 82.9134 25.0948 80.2721 25.1011C78.4172 25.1056 77.4595 25.1355 77.0921 25.2004Z" fill="#1AAA55"/>
</svg>
